<svg width="19" height="18" viewBox="0 0 19 18" fill="none" xmlns="http://www.w3.org/2000/svg">
<g clip-path="url(#clip0_176_2034)">
<path d="M17.867 9.20254C17.867 8.46004 17.8109 7.92004 17.676 7.35754H9.23828V10.6988H14.1931C14.092 11.5313 13.5527 12.78 12.3505 13.6238L12.3392 13.7363L15.002 15.8063L15.1818 15.8288C16.8896 14.2538 17.867 11.9363 17.867 9.20254Z" fill="#4285F4"/>
<path d="M9.23835 18C11.6652 18 13.6988 17.2012 15.1931 15.8175L12.3618 13.6125C11.5978 14.1412 10.5866 14.5125 9.24958 14.5125C6.86769 14.5125 4.85656 12.9375 4.1375 10.7775L4.03638 10.7887L1.25001 12.9375L1.21631 13.0387C2.68814 15.975 5.72168 18 9.23835 18Z" fill="#34A853"/>
<path d="M4.12619 10.7775C3.93519 10.215 3.82284 9.61876 3.82284 9.00001C3.82284 8.38126 3.93519 7.78501 4.11496 7.22251V7.09876L1.30612 4.91626L1.21624 4.96126C0.598296 6.17626 0.25 7.54876 0.25 9.00001C0.25 10.4513 0.598296 11.8238 1.205 13.0388L4.12619 10.7775Z" fill="#FBBC05"/>
<path d="M9.23835 3.47625C10.9237 3.47625 12.0697 4.2075 12.7101 4.815L15.2493 2.34C13.6875 0.88875 11.6652 0 9.23835 0C5.72169 0 2.68814 2.025 1.20508 4.96125L4.11503 7.2225C4.84533 5.05125 6.85646 3.47625 9.23835 3.47625Z" fill="#EB4335"/>
</g>
<defs>
<clipPath id="clip0_176_2034">
<rect x="0.25" width="18" height="18" rx="9" fill="white"/>
</clipPath>
</defs>
</svg>
