<svg width="25" height="24" viewBox="0 0 25 24" fill="none" xmlns="http://www.w3.org/2000/svg">
<g clip-path="url(#clip0_74_20971)">
<path d="M23.9894 12.27C23.9894 11.28 23.9145 10.56 23.7347 9.81001H12.4844V14.265H19.0908C18.9559 15.375 18.2369 17.04 16.634 18.165L16.619 18.315L20.1694 21.075L20.4091 21.105C22.6861 19.005 23.9894 15.915 23.9894 12.27Z" fill="#4285F4"/>
<path d="M12.4844 24C15.7202 24 18.4316 22.935 20.424 21.09L16.6489 18.15C15.6303 18.855 14.282 19.35 12.4994 19.35C9.3235 19.35 6.642 17.25 5.68325 14.37L5.54843 14.385L1.83327 17.25L1.78833 17.385C3.75077 21.3 7.7955 24 12.4844 24Z" fill="#34A853"/>
<path d="M5.66826 14.37C5.41359 13.62 5.26379 12.825 5.26379 12C5.26379 11.175 5.41359 10.38 5.65328 9.62999V9.46499L1.90816 6.55499L1.78832 6.61499C0.964394 8.23499 0.5 10.065 0.5 12C0.5 13.935 0.964394 15.765 1.77334 17.385L5.66826 14.37Z" fill="#FBBC05"/>
<path d="M12.4844 4.635C14.7315 4.635 16.2595 5.61 17.1134 6.42L20.4989 3.12C18.4167 1.185 15.7202 0 12.4844 0C7.79551 0 3.75078 2.7 1.77336 6.615L5.6533 9.63C6.62703 6.735 9.30853 4.635 12.4844 4.635Z" fill="#EB4335"/>
</g>
<defs>
<clipPath id="clip0_74_20971">
<path d="M0.5 12C0.5 5.37258 5.87258 0 12.5 0C19.1274 0 24.5 5.37258 24.5 12C24.5 18.6274 19.1274 24 12.5 24C5.87258 24 0.5 18.6274 0.5 12Z" fill="white"/>
</clipPath>
</defs>
</svg>
