<svg width="24" height="24" viewBox="0 0 24 24" fill="none" xmlns="http://www.w3.org/2000/svg">
<g clip-path="url(#clip0_176_5567)">
<path d="M23.4894 12.2701C23.4894 11.2801 23.4145 10.5601 23.2347 9.81006H11.9844V14.2651H18.5908C18.4559 15.3751 17.7369 17.0401 16.134 18.1651L16.119 18.3151L19.6694 21.0751L19.909 21.1051C22.1861 19.0051 23.4894 15.9151 23.4894 12.2701Z" fill="#4285F4"/>
<path d="M11.9844 24.0001C15.2202 24.0001 17.9316 22.9351 19.924 21.0901L16.1489 18.1501C15.1303 18.8551 13.782 19.3501 11.9994 19.3501C8.8235 19.3501 6.142 17.2501 5.18325 14.3701L5.04843 14.3851L1.33327 17.2501L1.28833 17.3851C3.25077 21.3001 7.2955 24.0001 11.9844 24.0001Z" fill="#34A853"/>
<path d="M5.16826 14.3702C4.91359 13.6202 4.76379 12.8252 4.76379 12.0002C4.76379 11.1752 4.91359 10.3802 5.15328 9.63017V9.46517L1.40816 6.55518L1.28832 6.61518C0.464394 8.23517 0 10.0652 0 12.0002C0 13.9352 0.464394 15.7652 1.27334 17.3852L5.16826 14.3702Z" fill="#FBBC05"/>
<path d="M11.9843 4.635C14.2314 4.635 15.7594 5.61 16.6133 6.42L19.9989 3.12C17.9166 1.185 15.2201 0 11.9843 0C7.29546 0 3.25074 2.7 1.27332 6.615L5.15325 9.63C6.12698 6.735 8.80849 4.635 11.9843 4.635Z" fill="#EB4335"/>
</g>
<defs>
<clipPath id="clip0_176_5567">
<path d="M0 12C0 5.37258 5.37258 0 12 0C18.6274 0 24 5.37258 24 12C24 18.6274 18.6274 24 12 24C5.37258 24 0 18.6274 0 12Z" fill="white"/>
</clipPath>
</defs>
</svg>
