<svg width="16" height="16" viewBox="0 0 16 16" fill="none" xmlns="http://www.w3.org/2000/svg">
<path d="M4.00024 5.3335C4.00024 4.27263 4.42167 3.25521 5.17182 2.50507C5.92196 1.75492 6.93938 1.3335 8.00024 1.3335C9.06111 1.3335 10.0785 1.75492 10.8287 2.50507C11.5788 3.25521 12.0002 4.27263 12.0002 5.3335C12.0002 10.0002 14.0002 11.3335 14.0002 11.3335H2.00024C2.00024 11.3335 4.00024 10.0002 4.00024 5.3335Z" stroke="#1F2937" stroke-linecap="round" stroke-linejoin="round"/>
<path d="M6.86694 14C6.97853 14.203 7.14258 14.3722 7.34194 14.4901C7.5413 14.608 7.76866 14.6702 8.00028 14.6702C8.23189 14.6702 8.45925 14.608 8.65862 14.4901C8.85798 14.3722 9.02202 14.203 9.13361 14" stroke="#1F2937" stroke-linecap="round" stroke-linejoin="round"/>
</svg>
