<svg width="17" height="16" viewBox="0 0 17 16" fill="none" xmlns="http://www.w3.org/2000/svg">
<path d="M13.8336 4.6665H7.83362" stroke="#1F2937" stroke-linecap="round" stroke-linejoin="round"/>
<path d="M9.83362 11.3335H3.83362" stroke="black" stroke-linecap="round" stroke-linejoin="round"/>
<path d="M11.8336 13.3335C12.9382 13.3335 13.8336 12.4381 13.8336 11.3335C13.8336 10.2289 12.9382 9.3335 11.8336 9.3335C10.729 9.3335 9.83362 10.2289 9.83362 11.3335C9.83362 12.4381 10.729 13.3335 11.8336 13.3335Z" stroke="black" stroke-linecap="round" stroke-linejoin="round"/>
<path d="M5.16687 6.6665C6.27144 6.6665 7.16687 5.77107 7.16687 4.6665C7.16687 3.56193 6.27144 2.6665 5.16687 2.6665C4.0623 2.6665 3.16687 3.56193 3.16687 4.6665C3.16687 5.77107 4.0623 6.6665 5.16687 6.6665Z" stroke="black" stroke-linecap="round" stroke-linejoin="round"/>
</svg>
