<svg width="15" height="14" viewBox="0 0 15 14" fill="none" xmlns="http://www.w3.org/2000/svg">
<path d="M11 4.6665C11.9665 4.6665 12.75 3.883 12.75 2.9165C12.75 1.95001 11.9665 1.1665 11 1.1665C10.0335 1.1665 9.25 1.95001 9.25 2.9165C9.25 3.883 10.0335 4.6665 11 4.6665Z" stroke="#1E40AF" stroke-linecap="round" stroke-linejoin="round"/>
<path d="M4 8.75C4.9665 8.75 5.75 7.9665 5.75 7C5.75 6.0335 4.9665 5.25 4 5.25C3.0335 5.25 2.25 6.0335 2.25 7C2.25 7.9665 3.0335 8.75 4 8.75Z" stroke="#1E40AF" stroke-linecap="round" stroke-linejoin="round"/>
<path d="M11 12.8335C11.9665 12.8335 12.75 12.05 12.75 11.0835C12.75 10.117 11.9665 9.3335 11 9.3335C10.0335 9.3335 9.25 10.117 9.25 11.0835C9.25 12.05 10.0335 12.8335 11 12.8335Z" stroke="#1E40AF" stroke-linecap="round" stroke-linejoin="round"/>
<path d="M5.51086 7.88086L9.49503 10.2025" stroke="#1E40AF" stroke-linecap="round" stroke-linejoin="round"/>
<path d="M9.4892 3.79736L5.51086 6.11903" stroke="#1E40AF" stroke-linecap="round" stroke-linejoin="round"/>
</svg>
